<svg xmlns="http://www.w3.org/2000/svg" width="36" height="36" viewBox="0 0 36 36">
  <defs>
    <style>
      .cls-1 {
        fill: #212121;
      }
    </style>
  </defs>
  <path id="Exclusion_1" data-name="Exclusion 1" class="cls-1" d="M3851-346a17.883,17.883,0,0,1-12.728-5.272A17.882,17.882,0,0,1,3833-364a17.881,17.881,0,0,1,5.272-12.728A17.883,17.883,0,0,1,3851-382a17.883,17.883,0,0,1,12.728,5.272A17.881,17.881,0,0,1,3869-364a17.882,17.882,0,0,1-5.272,12.728A17.883,17.883,0,0,1,3851-346Zm-8.793-26a2.1,2.1,0,0,0-2.2,1.974l-.012,11.84a2.1,2.1,0,0,0,2.207,1.974h17.653a2.1,2.1,0,0,0,2.207-1.974v-11.84a2.1,2.1,0,0,0-2.207-1.974Zm8.826,8.881h0l-8.826-4.933v-1.973l8.826,4.934,8.826-4.934v1.973l-8.826,4.933Z" transform="translate(-3833 382)"/>
</svg>
