<svg xmlns="http://www.w3.org/2000/svg" width="36" height="36" viewBox="0 0 36 36">
  <defs>
    <style>
      .cls-1 {
        fill: #212121;
      }
    </style>
  </defs>
  <path id="Icon_awesome-skype" data-name="Icon awesome-skype" class="cls-1" d="M34.135,23.774a17.492,17.492,0,0,0,.378-3.52,16.494,16.494,0,0,0-16.5-16.5,16.99,16.99,0,0,0-3.52.378,8.99,8.99,0,0,0-12.619,12.6,17.493,17.493,0,0,0-.378,3.52A16.494,16.494,0,0,0,18,36.755a16.99,16.99,0,0,0,3.52-.378A8.991,8.991,0,0,0,36,29.248a8.866,8.866,0,0,0-1.865-5.474ZM18.494,31.129c-5.273,0-9.685-2.347-9.685-5.224a2.258,2.258,0,0,1,2.371-2.459c2.508,0,2.741,3.609,7.081,3.609,2.066,0,3.4-.916,3.4-2.114,0-1.5-1.286-1.736-3.376-2.251-5.023-1.238-9.468-1.768-9.468-7.009,0-4.758,4.71-6.518,8.769-6.518,4.429,0,8.906,1.76,8.906,4.453a2.421,2.421,0,0,1-2.435,2.556c-2.275,0-2.347-2.693-6.028-2.693-2.066,0-3.376.563-3.376,1.808,0,1.591,1.672,1.752,5.554,2.652,3.328.747,7.29,2.154,7.29,6.237,0,4.75-4.589,6.952-9,6.952Z" transform="translate(0 -2.25)"/>
</svg>
