<svg xmlns="http://www.w3.org/2000/svg" width="36" height="36" viewBox="0 0 36 36">
  <defs>
    <style>
      .cls-1 {
        fill: #212121;
      }

      .cls-2 {
        fill: #fff;
      }
    </style>
  </defs>
  <g id="Group_1" data-name="Group 1" transform="translate(-191 -474)">
    <circle id="Ellipse_2" data-name="Ellipse 2" class="cls-1" cx="18" cy="18" r="18" transform="translate(191 474)"/>
    <path id="Icon_awesome-linkedin-in" data-name="Icon awesome-linkedin-in" class="cls-2" d="M5.19,23.185H.383V7.706H5.19ZM2.784,5.595a2.8,2.8,0,1,1,2.784-2.81A2.807,2.807,0,0,1,2.784,5.595Zm20.4,17.59h-4.8V15.65c0-1.8-.036-4.1-2.5-4.1C13.385,11.551,13,13.5,13,15.52v7.664H8.2V7.706h4.61V9.817h.067a5.051,5.051,0,0,1,4.548-2.5c4.865,0,5.759,3.2,5.759,7.364v8.5Z" transform="translate(197 479.999)"/>
  </g>
</svg>
