<svg xmlns="http://www.w3.org/2000/svg" width="36" height="36" viewBox="0 0 36 36">
  <defs>
    <style>
      .cls-1 {
        fill: #212121;
      }

      .cls-2 {
        fill: #fff;
      }
    </style>
  </defs>
  <g id="Group_14" data-name="Group 14" transform="translate(-119 -477)">
    <circle id="Ellipse_5" data-name="Ellipse 5" class="cls-1" cx="18" cy="18" r="18" transform="translate(119 477)"/>
    <path id="Icon_awesome-twitter" data-name="Icon awesome-twitter" class="cls-2" d="M25.307,9.126c.018.252.018.5.018.756,0,7.69-5.817,16.55-16.448,16.55A16.263,16.263,0,0,1,0,23.821a11.885,11.885,0,0,0,1.4.072,11.532,11.532,0,0,0,7.177-2.485,5.8,5.8,0,0,1-5.405-4.034,7.246,7.246,0,0,0,1.092.09,6.079,6.079,0,0,0,1.521-.2,5.809,5.809,0,0,1-4.636-5.709v-.072a5.8,5.8,0,0,0,2.613.738,5.85,5.85,0,0,1-1.79-7.78,16.4,16.4,0,0,0,11.92,6.087A6.606,6.606,0,0,1,13.745,9.2a5.779,5.779,0,0,1,10-3.98,11.339,11.339,0,0,0,3.669-1.4,5.8,5.8,0,0,1-2.541,3.206,11.533,11.533,0,0,0,3.329-.9,12.469,12.469,0,0,1-2.9,3.007Z" transform="translate(123.2 479.974)"/>
  </g>
</svg>
